<svg id="Layer_1" data-name="Layer 1" xmlns="http://www.w3.org/2000/svg" viewBox="0 0 144.23 30.85"><defs><style>.cls-1{fill:#787878;}.cls-2{fill:#31aeb1;}</style></defs><title>rxdost-logo</title><path class="cls-1" d="M21.76,14.91a8.83,8.83,0,0,1-3.69,3.5,13,13,0,0,1-6.18,1.33H7.34V30.55H0V.43H11.89A13.52,13.52,0,0,1,18,1.67a8.56,8.56,0,0,1,3.73,3.43,10,10,0,0,1,1.24,5A9.7,9.7,0,0,1,21.76,14.91Zm-7.3-2a3.68,3.68,0,0,0,1-2.79,3.68,3.68,0,0,0-1-2.79,4.38,4.38,0,0,0-3.13-1h-4V13.9h4A4.37,4.37,0,0,0,14.46,12.92Z"/><path class="cls-2" d="M50.85,2.32a13.49,13.49,0,0,1,5.51,5.3,15.57,15.57,0,0,1,2,7.87,15.6,15.6,0,0,1-2,7.85,13.41,13.41,0,0,1-5.54,5.32,17.54,17.54,0,0,1-8.3,1.89H31.24V.43H42.52A17.52,17.52,0,0,1,50.85,2.32ZM48.53,21.93a8.61,8.61,0,0,0,2.32-6.44A8.76,8.76,0,0,0,48.53,9,8.76,8.76,0,0,0,42,6.69H38.57V24.2H42A8.86,8.86,0,0,0,48.53,21.93Z"/><path class="cls-2" d="M68.89,28.88a14.74,14.74,0,0,1-5.62-5.51,15.4,15.4,0,0,1-2.08-8,15.29,15.29,0,0,1,2.08-7.94A14.8,14.8,0,0,1,68.89,2,16.35,16.35,0,0,1,84.47,2,14.5,14.5,0,0,1,90,7.47a15.55,15.55,0,0,1,2,7.94,15.54,15.54,0,0,1-2.06,8,14.64,14.64,0,0,1-5.58,5.51,16.31,16.31,0,0,1-15.56,0Zm13.56-7.12a9.12,9.12,0,0,0,2.17-6.35A9.11,9.11,0,0,0,82.45,9a7.42,7.42,0,0,0-5.77-2.38A7.51,7.51,0,0,0,70.87,9a9.09,9.09,0,0,0-2.17,6.39,9.11,9.11,0,0,0,2.17,6.37,7.48,7.48,0,0,0,5.82,2.38A7.39,7.39,0,0,0,82.45,21.76Z"/><path class="cls-2" d="M101.14,29.78A9.64,9.64,0,0,1,97,26.61a8.67,8.67,0,0,1-1.65-5.06h7.81a3.79,3.79,0,0,0,1.16,2.55,3.72,3.72,0,0,0,2.58.88,4,4,0,0,0,2.58-.75,2.51,2.51,0,0,0,.94-2.08,2.46,2.46,0,0,0-.75-1.85,6.09,6.09,0,0,0-1.84-1.2A29.92,29.92,0,0,0,104.66,18a33.68,33.68,0,0,1-4.76-1.8,8.8,8.8,0,0,1-3.18-2.66A7.42,7.42,0,0,1,95.39,9a7.89,7.89,0,0,1,3-6.59A12.52,12.52,0,0,1,106.38,0a12.66,12.66,0,0,1,8,2.38A8.53,8.53,0,0,1,117.66,9h-7.94a3.11,3.11,0,0,0-1.07-2.3,3.78,3.78,0,0,0-2.53-.84,3.16,3.16,0,0,0-2.15.71,2.55,2.55,0,0,0-.82,2,2.52,2.52,0,0,0,1.37,2.27,22.44,22.44,0,0,0,4.29,1.76,39.59,39.59,0,0,1,4.74,1.89,9,9,0,0,1,3.15,2.62A7,7,0,0,1,118,21.59a8.68,8.68,0,0,1-1.31,4.68,9.16,9.16,0,0,1-3.8,3.35,13,13,0,0,1-5.88,1.24A15.51,15.51,0,0,1,101.14,29.78Z"/><path class="cls-2" d="M144.23.43V6.31h-8V30.55h-7.34V6.31h-8V.43Z"/><polygon class="cls-1" points="20.13 18.59 27.76 18.58 16.46 30.38 16.27 30.57 8.65 30.58 20.13 18.59"/><polygon class="cls-1" points="27.73 30.53 19.22 30.58 6.67 17.59 6.49 17.4 15.01 17.35 27.73 30.53"/></svg>