<svg id="Layer_1" data-name="Layer 1" xmlns="http://www.w3.org/2000/svg" viewBox="0 0 58.31 30.15"><defs><style>.cls-1{fill:#787878;}.cls-2{fill:#31aeb1;}</style></defs><title>rxdost-logo-small</title><path class="cls-1" d="M21.76,14.91a8.83,8.83,0,0,1-3.69,3.5,13,13,0,0,1-6.18,1.33H7.34V30.55H0V.43H11.89A13.52,13.52,0,0,1,18,1.67a8.56,8.56,0,0,1,3.73,3.43,10,10,0,0,1,1.24,5A9.7,9.7,0,0,1,21.76,14.91Zm-7.3-2a3.68,3.68,0,0,0,1-2.79,3.68,3.68,0,0,0-1-2.79,4.38,4.38,0,0,0-3.13-1h-4V13.9h4A4.37,4.37,0,0,0,14.46,12.92Z" transform="translate(0 -0.43)"/><path class="cls-2" d="M50.85,2.32a13.49,13.49,0,0,1,5.51,5.3,15.57,15.57,0,0,1,2,7.87,15.6,15.6,0,0,1-2,7.85,13.41,13.41,0,0,1-5.54,5.32,17.54,17.54,0,0,1-8.3,1.89H31.24V.43H42.52A17.52,17.52,0,0,1,50.85,2.32ZM48.53,21.93a8.61,8.61,0,0,0,2.32-6.44A8.76,8.76,0,0,0,48.53,9,8.76,8.76,0,0,0,42,6.69H38.57V24.2H42A8.86,8.86,0,0,0,48.53,21.93Z" transform="translate(0 -0.43)"/><polygon class="cls-1" points="20.13 18.16 27.76 18.15 16.46 29.95 16.27 30.14 8.65 30.15 20.13 18.16"/><polygon class="cls-1" points="27.73 30.1 19.22 30.15 6.67 17.16 6.49 16.98 15.01 16.92 27.73 30.1"/></svg>